REM GENRE "Black Metal"
REM DATE 2006
REM DISCID 5D09BD08
REM COMMENT "ExactAudioCopy v0.99pb5"
PERFORMER "Besatt"
TITLE "Black Mass "
FILE "Besatt - Black Mass.ape" WAVE
  TRACK 01 AUDIO
    TITLE "Black Mass"
    PERFORMER "Besatt"
    INDEX 01 00:00:00
  TRACK 02 AUDIO
    TITLE "Born to Revange"
    PERFORMER "Besatt"
    INDEX 01 05:43:26
  TRACK 03 AUDIO
    TITLE "Suicidal Ritual"
    PERFORMER "Besatt"
    INDEX 01 09:42:14
  TRACK 04 AUDIO
    TITLE "Final War"
    PERFORMER "Besatt"
    INDEX 01 14:07:38
  TRACK 05 AUDIO
    TITLE "Son of Pure Viking Blood"
    PERFORMER "Besatt"
    INDEX 01 20:01:64
  TRACK 06 AUDIO
    TITLE "Towards the Abyss"
    PERFORMER "Besatt"
    INDEX 01 27:18:72
  TRACK 07 AUDIO
    TITLE "Demoniacal Possession"
    PERFORMER "Besatt"
    INDEX 01 31:38:50
